<?xml version="1.0" encoding="UTF-8" standalone="no"?>
<!-- Created with Inkscape (http://www.inkscape.org/) -->

<svg
   xmlns:dc="http://purl.org/dc/elements/1.1/"
   xmlns:cc="http://creativecommons.org/ns#"
   xmlns:rdf="http://www.w3.org/1999/02/22-rdf-syntax-ns#"
   xmlns:svg="http://www.w3.org/2000/svg"
   xmlns="http://www.w3.org/2000/svg"
   xmlns:xlink="http://www.w3.org/1999/xlink"
   xmlns:sodipodi="http://sodipodi.sourceforge.net/DTD/sodipodi-0.dtd"
   xmlns:inkscape="http://www.inkscape.org/namespaces/inkscape"
   width="640"
   height="640"
   id="svg2"
   version="1.1"
   inkscape:version="0.48.2 r9819"
   sodipodi:docname="001-On-The-Road-Again.svg">
  <defs
     id="defs4">
    <linearGradient
       gradientTransform="matrix(1.1356147,0,0,1.1356147,627.83268,-614.85425)"
       gradientUnits="userSpaceOnUse"
       y2="259.64285"
       x2="10.714294"
       y1="259.64285"
       x1="-552.85712"
       id="linearGradient3795"
       xlink:href="#linearGradient3781"
       inkscape:collect="always" />
    <linearGradient
       id="linearGradient3757">
      <stop
         id="stop3759"
         offset="0"
         style="stop-color:#000000;stop-opacity:1;" />
      <stop
         id="stop3761"
         offset="1"
         style="stop-color:#000000;stop-opacity:0;" />
    </linearGradient>
    <linearGradient
       id="linearGradient3765">
      <stop
         id="stop3767"
         offset="0"
         style="stop-color:#1c3180;stop-opacity:1;" />
      <stop
         id="stop3769"
         offset="1"
         style="stop-color:#1c3180;stop-opacity:1;" />
    </linearGradient>
    <linearGradient
       id="linearGradient3773">
      <stop
         id="stop3775"
         offset="0"
         style="stop-color:#3e65d4;stop-opacity:1;" />
      <stop
         id="stop3777"
         offset="1"
         style="stop-color:#1c3180;stop-opacity:1;" />
    </linearGradient>
    <linearGradient
       id="linearGradient3781">
      <stop
         id="stop3783"
         offset="0"
         style="stop-color:#3865d4;stop-opacity:1;" />
      <stop
         id="stop3785"
         offset="1"
         style="stop-color:#1c3180;stop-opacity:1;" />
    </linearGradient>
    <linearGradient
       gradientTransform="matrix(1.1356147,0,0,1.1356147,627.83268,-614.85425)"
       gradientUnits="userSpaceOnUse"
       y2="259.64285"
       x2="10.714294"
       y1="259.64285"
       x1="-552.85712"
       id="linearGradient3795-7"
       xlink:href="#linearGradient3781-5"
       inkscape:collect="always" />
    <linearGradient
       id="linearGradient3757-4">
      <stop
         id="stop3759-9"
         offset="0"
         style="stop-color:#000000;stop-opacity:1;" />
      <stop
         id="stop3761-1"
         offset="1"
         style="stop-color:#000000;stop-opacity:0;" />
    </linearGradient>
    <linearGradient
       id="linearGradient3765-5">
      <stop
         id="stop3767-9"
         offset="0"
         style="stop-color:#1c3180;stop-opacity:1;" />
      <stop
         id="stop3769-5"
         offset="1"
         style="stop-color:#1c3180;stop-opacity:1;" />
    </linearGradient>
    <linearGradient
       id="linearGradient3773-4">
      <stop
         id="stop3775-3"
         offset="0"
         style="stop-color:#3e65d4;stop-opacity:1;" />
      <stop
         id="stop3777-6"
         offset="1"
         style="stop-color:#1c3180;stop-opacity:1;" />
    </linearGradient>
    <linearGradient
       id="linearGradient3781-5">
      <stop
         id="stop3783-3"
         offset="0"
         style="stop-color:#3865d4;stop-opacity:1;" />
      <stop
         id="stop3785-5"
         offset="1"
         style="stop-color:#1c3180;stop-opacity:1;" />
    </linearGradient>
  </defs>
  <sodipodi:namedview
     id="base"
     pagecolor="#ffffff"
     bordercolor="#666666"
     borderopacity="1.0"
     inkscape:pageopacity="0.0"
     inkscape:pageshadow="2"
     inkscape:zoom="1.4142136"
     inkscape:cx="257.86246"
     inkscape:cy="446.7767"
     inkscape:document-units="px"
     inkscape:current-layer="layer1"
     showgrid="false"
     inkscape:window-width="1318"
     inkscape:window-height="787"
     inkscape:window-x="64"
     inkscape:window-y="0"
     inkscape:window-maximized="0" />
  <metadata
     id="metadata7">
    <rdf:RDF>
      <cc:Work
         rdf:about="">
        <dc:format>image/svg+xml</dc:format>
        <dc:type
           rdf:resource="http://purl.org/dc/dcmitype/StillImage" />
        <dc:title />
      </cc:Work>
    </rdf:RDF>
  </metadata>
  <g
     inkscape:label="Layer 1"
     inkscape:groupmode="layer"
     id="layer1"
     transform="translate(0,-412.36218)">
    <g
       id="g3122"
       transform="translate(0,412.36218)">
      <g
         inkscape:label="Bitmap SVG"
         id="layer3-4">
        <rect
           transform="matrix(0,1,-1,0,0,0)"
           y="-640"
           x="0"
           height="640"
           width="640"
           id="rect2987-1"
           style="fill:url(#linearGradient3795-7);fill-opacity:1;stroke:none" />
      </g>
      <g
         style="display:inline"
         inkscape:label="Base DB Logo"
         id="layer2-8">
        <path
           inkscape:connector-curvature="0"
           id="path3055"
           d="m 290.36912,614.73122 c -0.32709,-0.33929 -7.52709,-1.02153 -16,-1.5161 -13.00863,-0.75932 -17.881,-1.5445 -31.31858,-5.04694 C 146.02493,582.87889 71.073284,513.42086 37.449814,417.63707 c -10.43934,-29.73875 -12.39049,-45.02005 -12.449,-97.5 -0.0423,-37.98787 1.55898,-58.44429 5.83187,-74.5 10.63125,-39.94772 26.57339,-72.81503 51.57775,-106.33587 12.17294,-16.31903 39.177926,-43.433447 55.265326,-55.489254 34.0682,-25.530508 71.92051,-43.442561 111.24772,-52.643417 15.08336,-3.528851 30.53782,-4.534091 69.54034,-4.52327 41.36823,0.01148 56.64906,1.004273 72,4.677842 54.08512,12.942878 100.47791,39.042966 140,78.762489 39.26571,39.46186 63.69847,82.28761 77.61951,136.05148 4.23544,16.35749 5.88441,37.27368 5.87337,74.5 -0.014,47.38424 -1.8235,63.38898 -10.14433,89.72705 -24.43583,77.34725 -77.84497,139.91104 -150.57803,176.38804 -29.79743,14.94397 -62.17624,24.8949 -86.27052,26.51337 -16.92867,1.13715 -75.82494,2.26417 -76.5947,1.46569 z m 13.53602,-85.07675 c 0.44345,-24.06624 1.08526,-38.44697 1.75172,-39.25 0.76203,-0.91819 5.10896,-1.2674 15.77662,-1.2674 l 14.72476,0 0.64824,11.25 c 0.35654,6.1875 0.65029,21.19135 0.65279,33.34189 0.002,12.15054 0.29931,28.23804 0.65958,35.75 l 0.65503,13.65811 3.71964,0 c 4.49733,0 25.35485,-3.4498 36.68642,-6.06787 24.36368,-5.62904 65.34871,-22.4678 65.24501,-26.806 -0.0214,-0.89437 -7.11953,-50.22613 -15.77365,-109.62613 l -15.73477,-108 -38.97636,0 -38.97635,0 -0.51113,12.6778 c -0.28112,6.97279 -0.80366,12.97032 -1.16119,13.32785 -1.28681,1.28681 -23.49183,1.84678 -24.25517,0.61167 -0.39617,-0.64101 -0.97999,-7.00463 -1.2974,-14.14139 l -0.57709,-12.97593 -38.82996,0 -38.82996,0 -0.542,2.25 c -0.87266,3.62267 -31.4961,214.91841 -31.4961,217.31695 0,1.70461 1.47294,2.88872 6.75,5.42633 26.5843,12.78379 59.76472,22.54706 86.03842,25.31663 l 11.71158,1.23454 0.62072,-8.02222 c 0.3414,-4.41223 0.93567,-25.1144 1.3206,-46.00483 z m 1.96312,-90.7674 c 0.84426,-39.09121 2.12146,-69.60923 2.94777,-70.43554 0.91331,-0.91331 22.36781,-0.91585 23.28721,-0.003 1.51335,1.50296 2.24047,15.97283 2.96618,59.02803 0.6134,36.39235 0.50929,42.97442 -0.69176,43.73468 -0.77761,0.49223 -7.67192,0.90186 -15.32067,0.91028 l -13.90684,0.0156 0.71811,-33.25 z m -152.5493,67.23147 c 2.1916,-7.96481 13.05176,-49.58147 24.13368,-92.48147 11.08192,-42.9 20.37327,-78.7875 20.64745,-79.75 0.47145,-1.65501 -3.38623,-1.75 -71.06888,-1.75 -45.097356,0 -71.567386,0.35536 -71.567386,0.96078 0,3.94835 2.49231,23.51893 4.14387,32.53922 7.74968,42.32644 26.86286,84.72524 52.743036,117 5.44013,6.78431 36.16396,38.78247 36.71186,38.23457 0.14939,-0.1494 2.06476,-6.7883 4.25637,-14.7531 z m 359.52842,-7.95622 c 32.73714,-34.86259 55.48488,-79.40597 65.63624,-128.52525 1.99692,-9.66246 4.95584,-30.63946 4.97221,-35.25 l 0.008,-2.25 -68.75,0.0153 c -37.8125,0.008 -69.3004,0.365 -69.97311,0.7924 -0.91298,0.58005 4.61337,23.33238 21.79582,89.73469 12.66041,48.92668 23.47614,90.68405 24.03496,92.79416 l 1.01603,3.83656 5.68815,-5.31131 c 3.12848,-2.92121 10.13575,-10.04767 15.57171,-15.83656 z m 69.57536,-189.584 c 2.00958,-2.0099 -1.67349,-29.92988 -6.53338,-49.52707 -8.98981,-36.25085 -26.54491,-71.97058 -49.84043,-101.41137 -9.1799,-11.60152 -30.91075,-33.62739 -41.17217,-41.73113 -45.57661,-35.993136 -92.6464,-54.163574 -154.79338,-59.755167 -12.37654,-1.113562 -24.0031,-0.270023 -49.61956,3.600034 -45.15778,6.822301 -87.68502,25.604107 -124.91104,55.165943 -11.89306,9.44449 -32.47972,29.91616 -41.44901,41.21751 -30.556946,38.5019 -49.047886,80.79309 -55.965316,128 -2.21063,15.08603 -2.7823,22.32352 -1.87444,23.73071 1.13806,1.764 14.83161,1.85057 285.899966,1.80739 166.93454,-0.0266 239.51998,-0.35796 240.25876,-1.09685 z"
           style="fill:#fefefe" />
      </g>
    </g>
    <text
       xml:space="preserve"
       style="font-size:295.0559082px;font-style:normal;font-variant:normal;font-weight:bold;font-stretch:normal;text-align:start;line-height:125%;letter-spacing:0px;word-spacing:0px;writing-mode:lr-tb;text-anchor:start;fill:#ffffff;fill-opacity:1;stroke:none;font-family:Sans;-inkscape-font-specification:Sans Bold"
       x="214.8829"
       y="706.93506"
       id="text3049"
       sodipodi:linespacing="125%"><tspan
         sodipodi:role="line"
         id="tspan3051"
         x="214.8829"
         y="706.93506">1</tspan></text>
  </g>
</svg>
