<?xml version="1.0" encoding="UTF-8" standalone="no"?>
<!-- Created with Inkscape (http://www.inkscape.org/) -->

<svg
   xmlns:dc="http://purl.org/dc/elements/1.1/"
   xmlns:cc="http://creativecommons.org/ns#"
   xmlns:rdf="http://www.w3.org/1999/02/22-rdf-syntax-ns#"
   xmlns:svg="http://www.w3.org/2000/svg"
   xmlns="http://www.w3.org/2000/svg"
   xmlns:xlink="http://www.w3.org/1999/xlink"
   xmlns:sodipodi="http://sodipodi.sourceforge.net/DTD/sodipodi-0.dtd"
   xmlns:inkscape="http://www.inkscape.org/namespaces/inkscape"
   width="640"
   height="640"
   id="svg2"
   version="1.1"
   inkscape:version="0.48.4 r9939"
   sodipodi:docname="New document 1">
  <defs
     id="defs4">
    <linearGradient
       gradientTransform="matrix(1.1356147,0,0,1.1356147,627.83268,-614.85425)"
       gradientUnits="userSpaceOnUse"
       y2="259.64285"
       x2="10.714294"
       y1="259.64285"
       x1="-552.85712"
       id="linearGradient3795"
       xlink:href="#linearGradient3781"
       inkscape:collect="always" />
    <linearGradient
       id="linearGradient3757">
      <stop
         id="stop3759"
         offset="0"
         style="stop-color:#000000;stop-opacity:1;" />
      <stop
         id="stop3761"
         offset="1"
         style="stop-color:#000000;stop-opacity:0;" />
    </linearGradient>
    <linearGradient
       id="linearGradient3765">
      <stop
         id="stop3767"
         offset="0"
         style="stop-color:#1c3180;stop-opacity:1;" />
      <stop
         id="stop3769"
         offset="1"
         style="stop-color:#1c3180;stop-opacity:1;" />
    </linearGradient>
    <linearGradient
       id="linearGradient3773">
      <stop
         id="stop3775"
         offset="0"
         style="stop-color:#3e65d4;stop-opacity:1;" />
      <stop
         id="stop3777"
         offset="1"
         style="stop-color:#1c3180;stop-opacity:1;" />
    </linearGradient>
    <linearGradient
       id="linearGradient3781">
      <stop
         id="stop3783"
         offset="0"
         style="stop-color:#3865d4;stop-opacity:1;" />
      <stop
         id="stop3785"
         offset="1"
         style="stop-color:#1c3180;stop-opacity:1;" />
    </linearGradient>
  </defs>
  <sodipodi:namedview
     id="base"
     pagecolor="#ffffff"
     bordercolor="#666666"
     borderopacity="1.0"
     inkscape:pageopacity="0.0"
     inkscape:pageshadow="2"
     inkscape:zoom="0.35"
     inkscape:cx="-70.714286"
     inkscape:cy="520"
     inkscape:document-units="px"
     inkscape:current-layer="layer1"
     showgrid="false"
     inkscape:window-width="781"
     inkscape:window-height="722"
     inkscape:window-x="260"
     inkscape:window-y="260"
     inkscape:window-maximized="0" />
  <metadata
     id="metadata7">
    <rdf:RDF>
      <cc:Work
         rdf:about="">
        <dc:format>image/svg+xml</dc:format>
        <dc:type
           rdf:resource="http://purl.org/dc/dcmitype/StillImage" />
        <dc:title></dc:title>
      </cc:Work>
    </rdf:RDF>
  </metadata>
  <g
     inkscape:label="Layer 1"
     inkscape:groupmode="layer"
     id="layer1"
     transform="translate(0,-412.36218)">
    <g
       id="g3042"
       transform="translate(0,412.36218)">
      <g
         inkscape:label="Bitmap SVG"
         id="layer3">
        <rect
           transform="matrix(0,1,-1,0,0,0)"
           y="-640"
           x="0"
           height="640"
           width="640"
           id="rect2987"
           style="fill:url(#linearGradient3795);fill-opacity:1;stroke:none" />
      </g>
      <g
         style="display:inline"
         inkscape:label="Base DB Logo"
         id="layer2">
        <g
           id="g3760">
          <path
             inkscape:connector-curvature="0"
             d="m 312.54995,387.55949 c -0.22418,26.27214 -2.66137,53.4167 -2.25381,79.67853 7.04329,-1.67695 24.93863,6.36173 21.54324,-5.7539 0.0894,-28.58205 -0.90351,-60.93726 -1.74873,-89.50236 -8.68028,-0.25766 -21.37817,-5.03801 -17.41443,7.34835 0,1.35417 -0.12627,6.87522 -0.12627,8.22938 z m 3.6211,-360.146616 C 232.72925,27.369393 149.23927,67.498904 95.740969,131.22662 28.736499,209.1361 7.5472541,324.69269 44.325024,420.77984 73.675691,501.40411 141.38574,567.94428 222.40157,595.95121 282.48215,617.98116 353.1159,616.66256 413.384,596.93365 493.1771,570.70342 560.23637,508.12215 591.4667,429.97391 613.28627,378.77227 617.74149,321.07908 608.27849,266.5018 596.25183,205.21155 565.38602,145.7402 518.53581,103.97537 464.26648,53.938324 390.13158,25.36361 316.17105,27.412874 z m 14.45028,23.271619 c 108.63936,3.720917 216.58079,84.263267 246.78572,192.857137 6.96295,22.78835 10.23095,46.60327 10.9248,70.37378 -177.64555,-0.42857 -353.79198,-0.29449 -531.426885,-1.7334 -10.858753,2.30221 -3.022934,-12.3476 -3.903881,-18.61104 7.019391,-81.7853 55.927756,-157.47816 125.017576,-201.453016 43.28169,-24.217198 88.03775,-39.457349 135.96489,-41.328856 2.34379,-2.223238 -7.68855,13.620444 -3.76401,12.529324 -3.94311,6.315016 -12.85077,8.475717 -16.73844,14.348304 1.69641,7.378994 16.95013,17.355848 9.06119,26.470584 -4.26117,9.6174 -15.05356,2.1569 -21.62115,-0.9782 -4.39723,7.09185 -0.45758,21.37103 8.04453,23.72408 5.24076,2.05491 16.39983,7.7596 8.16083,13.29622 -5.9963,4.98473 -13.43062,11.48796 -19.75141,2.96176 -2.16208,-3.3542 -10.81581,-11.7051 -10.0267,-5.15406 -0.51998,7.76164 -3.40548,23.70466 6.01804,25.64513 7.30126,4.32557 23.83751,4.96544 27.12097,13.9719 0.47192,11.72015 -14.88561,17.12075 -24.47829,11.23731 -7.04965,-2.05003 -15.39535,-10.27766 -22.21551,-10.47313 0.80156,11.94351 1.61741,32.90016 15.82021,36.0189 9.2968,4.32066 21.65754,3.77195 30.16193,7.46061 3.13572,7.70125 -2.14148,15.59612 -9.89539,17.35076 -5.26346,2.38776 -13.35018,14.13193 -7.14286,19.16185 24.76031,3.53811 51.83203,0.49228 76.81241,1.20798 -0.49923,-8.01464 0.61328,-19.3338 -9.05112,-21.21805 -7.30257,-1.77411 -15.03451,-10.73133 -9.20781,-16.59445 12.02865,-6.50867 29.65651,-2.85445 39.34305,-13.29219 4.6434,-7.20863 7.48422,-21.77385 5.01401,-29.62098 -11.50607,4.91549 -27.37296,18.51179 -39.53695,8.59945 -6.37427,-4.40093 -8.24817,-13.00519 0.67228,-14.67744 7.7833,-4.70938 21.01392,-4.93486 26.49991,-12.44136 0.85494,-6.13829 2.36358,-20.91081 -0.17086,-26.48436 -6.86053,2.60304 -7.20681,12.62059 -21.28567,12.64902 -4.21769,-2.80915 -12.41599,-6.97105 -11.38525,-12.85582 20.69019,-11.69717 22.81878,-12.99018 20.64033,-26.36468 1.90618,-8.926366 -6.83876,-1.48505 -10.83027,0.91825 -10.88066,6.28206 -18.70223,-10.504604 -9.14304,-18.36485 3.08374,-4.329434 8.62417,-11.982398 1.62377,-16.278009 -6.6129,-6.229472 -15.09578,-12.845693 -16.33928,-22.054886 1.52157,-1.141802 2.45944,-0.622526 4.22838,-0.803572 z M 312.42368,345.98648 c -2.25817,11.00818 4.89373,10.83851 16.46664,8.01559 3.21456,-4.78383 0.57663,-12.76488 1.26795,-19.5562 -2.67672,-11.36718 9.61168,-4.48626 16.21193,-6.5765 23.18452,0 47.88427,-0.25254 71.0688,-0.25254 10.2846,74.19911 21.833,147.1638 32.55733,221.28195 2.88331,10.18063 -7.78096,9.01611 -16.16216,14.73804 -30.85665,13.65558 -66.62918,19.98784 -98.83784,24.3691 -0.0931,-30.1965 -1.80529,-62.46508 -2.10719,-95.26654 -6.5465,0.005 -21.72559,-0.66839 -23.44887,0.37137 0.20673,30.48816 -0.33221,64.12314 -1.49619,94.5853 -38.81689,-1.40744 -76.56408,-10.86168 -111.10542,-28.43864 -9.43616,-4.74304 -1.03401,-16.96915 -1.51364,-24.76554 9.65143,-69.3509 20.32709,-139.31525 29.95952,-208.0548 29.7621,-0.22957 57.1249,0.40133 86.8866,0.12496 0,4.53869 0.25254,14.88577 0.25254,19.42445 z M 126.82669,326.35414 c 26.08669,0.3044 52.73421,-0.48106 78.48214,1.25 -14.76904,64.43537 -32.23824,128.73038 -49.9094,192.44004 -1.57919,3.3231 -1.05536,12.69446 -6.47585,6.65309 -57.488926,-46.902 -92.908481,-119.45169 -97.350681,-193.40984 0.974086,-11.18276 8.635513,-5.22909 16.515164,-5.92314 20.252976,0 38.485647,-1.01015 58.738627,-1.01015 z m 386.83035,0 c 25.3125,0 49.10977,0 74.42227,0 -1.49667,67.39861 -27.88693,132.78797 -75.82701,180.39228 -7.271,6.62294 -13.70814,16.30233 -22.12204,20.90236 -6.41449,-8.96081 -5.25951,-22.95347 -9.0581,-33.28277 -14.37617,-55.73433 -30.66173,-109.88552 -43.30797,-166.00295 14.10415,-3.40417 29.68067,-1.14235 44.33024,-1.96304 10.52074,-0.0757 21.04171,-0.0365 31.56261,-0.0459 z M 354.37585,612.75765 c 60.55043,-7.08296 115.93153,-32.03747 162.53719,-73.2386 28.34571,-25.05869 50.56147,-54.47835 67.97249,-90.01395 18.09468,-36.93098 27.2054,-71.2611 29.57562,-111.44404 C 619.39682,254.38483 590.28346,175.07303 533.00086,116.14369 515.13722,97.766513 500.07289,85.157433 481.26757,72.842124 446.09579,49.808661 405.77376,34.534296 362.50026,27.851937 344.60958,25.089237 299.50736,24.72296 281.67645,27.195563 182.00874,41.016472 97.717402,101.87645 54.372206,191.31363 33.008711,235.39443 23.6557,279.35403 25.154961,328.63605 c 1.385976,45.5582 10.517025,82.01392 30.749531,122.76752 32.800553,66.06895 88.117318,116.38258 157.995228,143.70534 22.4037,8.76002 55.99377,16.63034 79.80035,18.69765 13.96968,1.21309 46.08455,0.65792 60.67579,-1.04891 z m -59.62697,-1.90754 C 225.58487,604.12554 162.53867,574.91012 114.70826,527.41984 90.36469,503.24938 72.554592,478.57564 57.641713,448.36103 2.403469,336.44422 24.750843,202.01335 113.31672,113.44748 158.40633,68.357885 214.40906,40.30361 279.14516,30.376594 c 20.20269,-3.098004 62.16378,-3.070464 82.26689,0.05397 84.31517,13.104371 155.80833,58.587049 203.15239,129.241926 18.29014,27.29566 35.05817,67.87127 41.63256,100.74327 5.03572,25.1787 6.2094,39.67425 5.46865,67.54152 -1.20596,45.36865 -9.46136,79.18983 -29.35965,120.28214 -38.38976,79.27937 -114.40432,138.6875 -200.89402,157.00592 -25.71321,5.44603 -63.29622,7.87662 -86.6631,5.60474 z m 14.9145,-63.25757 c 0.42658,-22.62339 0.85373,-44.12353 0.94924,-47.77807 l 0.17365,-6.64464 10.5904,0 10.59041,0 0.91476,47.14526 c 0.50312,25.92988 1.30449,47.55797 1.78082,48.06239 1.24341,1.31675 22.28754,-1.17571 40.22356,-4.76407 18.28521,-3.6582 36.68674,-9.53719 54.87063,-17.53022 16.13295,-7.09152 21.51596,-10.27189 21.51596,-12.71193 0,-1.76738 -30.80686,-214.57562 -32.30677,-223.16928 l -0.72074,-4.12946 -44.55359,0.33253 -44.55359,0.33254 -0.35923,13.60567 -0.35923,13.60568 -7.55105,0 -7.55105,0 0,-13.92209 0,-13.92209 -44.27345,0 -44.27344,0 -0.63156,2.8477 c -1.41979,6.40184 -32.32341,221.15246 -32.32341,224.61688 0,3.52875 0.81102,4.135 13.60567,10.17044 16.98383,8.01151 32.20399,13.37772 50.94219,17.96079 12.54474,3.06824 19.9125,4.29949 41.13345,6.87397 2.08831,0.25336 5.50555,0.39107 7.59386,0.30605 l 3.79694,-0.1546 z m -28.1429,36.02345 c -16.39679,-2.55509 -33.0105,-6.68786 -49.00484,-12.19025 -14.59567,-5.02122 -38.16866,-15.42638 -38.16866,-16.84771 0,-1.50662 31.65918,-219.01832 32.37961,-222.46145 l 0.72828,-3.48053 41.6657,0 41.6657,0 0,13.92209 c 0,10.22853 0.41973,13.95461 1.58206,14.0447 5.58323,0.43268 17.54772,-0.0629 18.6992,-0.77456 0.85067,-0.52575 1.31977,-5.28747 1.22552,-12.43996 -0.084,-6.37349 -0.11632,-12.30009 -0.0718,-13.17021 0.0631,-1.23206 9.32116,-1.58206 41.84723,-1.58206 22.97144,0 41.76656,0.14238 41.7669,0.31641 0.001,0.73935 31.63323,218.31 32.17614,221.31497 0.5641,3.12236 -0.23211,3.70109 -14.20755,10.32708 -17.79157,8.43527 -29.16365,12.57214 -47.79725,17.38739 -13.51153,3.49164 -38.40531,7.57998 -46.15417,7.57998 l -3.75342,0 -0.16102,-33.22317 c -0.0886,-18.27275 -0.5157,-39.48811 -0.94923,-47.14526 l -0.78821,-13.92208 -12.81412,-0.35894 c -12.41462,-0.34775 -12.83827,-0.26882 -13.5884,2.53129 -0.42586,1.58962 -0.78436,15.70487 -0.79669,31.36722 -0.0127,15.66235 -0.39276,35.73863 -0.84542,44.61397 l -0.823,16.13697 -6.44932,-0.12265 c -3.54714,-0.0674 -11.36059,-0.88789 -17.36327,-1.82329 z M 333.8031,467.54053 c 0.27834,-0.87013 -0.005,-22.9398 -0.63087,-49.04372 -0.79278,-33.09451 -1.57545,-47.75175 -2.58554,-48.41997 -0.7967,-0.52707 -5.43535,-0.81184 -10.30808,-0.63283 l -8.85951,0.32549 -0.80741,11.3908 c -0.44407,6.26494 -1.15397,28.61938 -1.57753,49.67654 l -0.77014,38.28575 12.51651,0 c 8.89956,0 12.66276,-0.45718 13.02257,-1.58206 z m -22.24672,-11.3908 c 0.2695,-5.74286 0.84105,-26.81584 1.27008,-46.82884 l 0.78008,-36.38728 8.0822,0 8.0822,0 0.002,19.30108 c 10e-4,10.61559 0.37719,31.68857 0.83437,46.82884 l 0.83127,27.52777 -10.18665,0 -10.18665,0 0.48999,-10.44157 z M 180.00489,429.8853 c 14.125,-54.64293 25.6933,-100.34748 25.70735,-101.56566 0.0241,-2.08572 -4.52215,-2.21488 -77.96129,-2.21488 l -77.986845,0 0.864996,11.07439 c 4.908569,62.84355 27.672286,116.63242 68.976619,162.98624 11.42463,12.8213 30.4958,29.8837 32.88717,29.42317 1.30324,-0.25097 9.22453,-28.95773 27.512,-99.70326 z M 132.4539,508.67398 C 122.89452,499.10254 111.33783,486.23969 106.77237,480.08987 76.065773,438.72711 57.660671,390.09727 54.056152,340.80344 l -0.889718,-12.16739 74.901686,0 74.90166,0 -9.20781,35.75446 c -32.71029,127.01608 -41.89892,161.68608 -42.85186,161.68608 -0.59153,0 -8.89682,-7.83118 -18.4562,-17.40261 z m 371.734,7.83109 c 30.1528,-28.44458 52.63069,-61.71254 67.87879,-100.46265 9.09125,-23.10361 17.16136,-61.5486 17.16136,-81.75448 l 0,-8.18318 -75.93866,0 c -74.92318,0 -75.93867,0.0337 -75.93867,2.51423 0,2.85942 48.77043,192.76903 50.62756,197.14119 0.66527,1.56623 1.69794,2.8477 2.29479,2.8477 0.59686,0 6.85854,-5.44627 13.91483,-12.10281 z m -14.31126,5.45817 c -0.30342,-0.87013 -11.41616,-43.72801 -24.69497,-95.23974 -13.27881,-51.51173 -24.44186,-94.65439 -24.80677,-95.87257 -0.62655,-2.09163 3.43497,-2.21488 72.99245,-2.21488 l 73.65591,0 -0.89326,11.70721 c -3.99458,52.35294 -25.38497,105.71645 -59.12271,147.49582 -8.37172,10.3672 -33.52054,35.70622 -35.43819,35.70622 -0.62741,0 -1.38902,-0.71193 -1.69246,-1.58206 z M 589.22805,306.5521 c 0,-12.46706 -3.35237,-35.32981 -7.73211,-52.73228 -16.219,-64.4444 -56.18316,-120.83807 -111.8969,-157.898467 -40.3832,-26.862615 -82.65351,-41.278305 -132.39162,-45.150256 -7.26948,-0.565905 -11.195,-0.39725 -11.75258,0.504921 -2.24704,3.635782 8.51931,18.051948 18.17446,24.335655 2.83551,1.8454 2.95243,2.30532 1.48597,5.84565 -0.87543,2.11348 -3.54695,5.7378 -5.93671,8.05405 -5.05836,4.90275 -5.48043,8.54 -1.70063,14.655827 4.83002,7.81512 8.90582,8.53149 16.9706,2.98279 l 5.51616,-3.79523 0.86947,6.95898 c 1.14318,9.14968 -1.00149,12.38319 -11.45915,17.27692 -8.98522,4.20468 -11.14258,6.15755 -10.02362,9.07348 1.71986,4.4819 15.68798,12.83679 19.45977,11.63966 1.28435,-0.40763 4.90791,-3.49161 8.05236,-6.85327 l 5.71718,-6.11213 0.86359,8.59939 c 1.05724,10.52742 -0.001,15.89257 -3.59912,18.23863 -1.50574,0.98193 -7.49188,3.3158 -13.30252,5.18641 -5.81065,1.87059 -12.0458,4.675 -13.85591,6.23198 -3.1225,2.68585 -3.21188,3.09528 -1.74477,7.99208 2.23074,7.44551 6.53832,10.35956 15.31369,10.35956 6.24718,0 8.52189,-0.78211 17.86476,-6.14252 l 10.70605,-6.14253 0.37828,8.21812 c 0.31135,6.76416 -0.20124,9.4026 -2.89728,14.91314 -3.8848,7.94021 -8.51205,10.60106 -24.05953,13.83514 -19.57915,4.07272 -21.07866,5.24875 -18.70773,14.672 0.92411,3.6729 2.25628,4.87424 8.99551,8.11209 4.35091,2.09039 8.44975,4.65332 9.10851,5.6954 0.65878,1.04208 1.2065,4.60001 1.21715,7.90651 l 0.0193,6.01181 -37.88404,0 c -37.29856,0 -37.89701,-0.0409 -38.72237,-2.64133 -2.43503,-7.67211 2.72411,-15.09547 12.27933,-17.66843 3.44983,-0.92895 5.32015,-2.29957 6.163,-4.51644 1.70301,-4.47925 1.50426,-11.33322 -0.37197,-12.82769 -0.87014,-0.69307 -7.2483,-2.46558 -14.1737,-3.93889 -17.48375,-3.7195 -23.34344,-6.85 -27.13479,-14.49657 -2.86561,-5.7795 -5.47268,-23.64625 -3.4504,-23.64625 0.45543,0 2.96047,1.34614 5.56678,2.99142 10.99203,6.93898 17.87562,9.66502 24.40528,9.66502 5.70106,0 7.02396,-0.5271 10.80005,-4.30319 3.29101,-3.29101 4.30319,-5.36887 4.30319,-8.83379 0,-3.96801 -0.58935,-4.82645 -4.74617,-6.91321 -2.61039,-1.31045 -8.55976,-3.63637 -13.22081,-5.16871 -4.66103,-1.53236 -9.92928,-3.93032 -11.70721,-5.32883 -2.94218,-2.31432 -3.23257,-3.37791 -3.23257,-11.8397 0,-13.46246 0.51618,-14.05743 6.53289,-7.53008 2.80026,3.03791 6.20072,5.87557 7.55661,6.30591 2.90835,0.92308 11.58133,-3.2546 16.60238,-7.99721 5.54397,-5.23649 4.61967,-7.51871 -4.76921,-11.77584 -11.78705,-5.34451 -13.26618,-7.16758 -13.26618,-16.35095 0,-4.47387 0.54758,-7.59386 1.33278,-7.59386 0.73304,0 3.42818,1.42385 5.98921,3.16411 5.98917,4.06974 9.14958,3.9938 13.1697,-0.31641 7.03025,-7.537577 7.60255,-13.390607 1.68823,-17.265817 -2.72495,-1.78546 -9.17984,-11.95487 -8.02971,-12.65049 7.77698,-4.703626 15.49383,-12.039119 18.12283,-17.227209 4.13276,-8.15561 4.07132,-10.12717 -0.31552,-10.125844 -9.05486,0.003 -32.85931,2.927962 -46.9394,5.768139 -40.84203,8.238485 -82.21476,27.828904 -115.3795,54.633381 -5.22079,4.21956 -15.79893,14.14006 -23.50698,22.04557 -37.107746,38.05832 -60.942972,83.19063 -71.302506,135.01219 -2.822897,14.12097 -5.772745,42.41424 -4.710663,45.18197 0.633648,1.65126 33.118431,1.87738 269.709609,1.87738 l 268.98916,0 z m -534.879915,4.13013 c -2.374578,-3.84215 1.669031,-36.26471 7.196314,-57.70165 C 86.718287,155.3467 168.02942,78.271703 266.69457,58.51833 c 12.18238,-2.438988 38.41296,-5.757569 45.75275,-5.78844 0.56553,-0.002 -0.56074,2.915123 -2.5028,6.483339 -2.4151,4.437329 -5.83996,8.115971 -10.83697,11.63995 -4.34159,3.061766 -7.30594,6.088464 -7.30594,7.459574 0,2.86325 4.95276,10.75721 9.23337,14.71663 2.74312,2.53728 3.03007,3.47773 1.98015,6.48953 -0.67532,1.937227 -2.65568,4.863607 -4.4008,6.503057 -3.09108,2.90392 -3.2689,2.92425 -6.8913,0.78792 -11.72969,-6.917607 -11.27941,-6.74854 -12.58261,-4.72419 -0.67218,1.04416 -1.23087,5.977 -1.24152,10.96187 -0.0181,8.44498 0.22946,9.27281 3.62766,12.13221 2.00588,1.68783 6.84697,4.36754 10.75798,5.9549 3.91102,1.58737 7.11093,3.38398 7.11093,3.99248 0,2.03138 -11.9807,9.92726 -15.11127,9.95907 -2.10473,0.0214 -4.94942,-1.98316 -8.93597,-6.29684 -3.21657,-3.48053 -6.49093,-6.32823 -7.27637,-6.32823 -2.60943,0 -4.35471,19.3156 -2.42805,26.87192 1.00636,3.9469 4.79256,6.21113 17.7633,10.62276 15.60991,5.30927 18.02326,8.75963 11.02314,15.75974 -6.26951,6.26952 -14.33588,4.77876 -31.91091,-5.8975 -4.06658,-2.47032 -7.96954,-4.13564 -8.67325,-3.70073 -1.65005,1.0198 -1.6456,16.35861 0.006,22.30621 3.23498,11.64612 10.55052,17.24714 26.99818,20.67066 17.07507,3.55412 18.54473,4.19972 18.54473,8.14652 0,4.83607 -2.13946,7.0766 -9.8706,10.33692 -4.40796,1.8589 -7.33595,4.04546 -8.5431,6.37983 -1.97492,3.81908 -2.44305,13.41887 -0.78197,16.0357 0.79122,1.24648 9.81396,1.52639 40.79767,1.26564 l 39.7819,-0.33475 0.37058,-7.67072 c 0.46139,-9.55028 -2.01988,-13.224 -11.14877,-16.50672 -5.20159,-1.87045 -6.56356,-2.99809 -7.41964,-6.14299 -1.73326,-6.36738 -0.13948,-7.57759 13.86287,-10.52654 22.69708,-4.78011 28.89566,-9.94594 31.55727,-26.29952 1.20647,-7.41281 0.40251,-18.28452 -1.35213,-18.28452 -0.54839,0 -5.92822,2.94709 -11.95516,6.5491 -8.59386,5.13613 -12.41781,6.67015 -17.72395,7.11017 -6.01293,0.49864 -7.1369,0.19003 -10.10018,-2.77324 -2.49628,-2.49628 -3.23504,-4.36253 -2.9393,-7.42518 0.38385,-3.97513 0.76623,-4.22144 13.51975,-8.70903 7.2186,-2.54001 14.23845,-5.73193 15.59968,-7.09314 1.3612,-1.36123 2.78691,-4.80087 3.16821,-7.64365 0.99641,-7.42889 -0.76294,-21.81416 -2.76176,-22.58118 -0.91214,-0.35002 -4.35805,2.2497 -7.65756,5.77715 -3.82273,4.08679 -7.04849,6.41354 -8.89164,6.41354 -2.95976,0 -13.26514,-7.06173 -14.12706,-9.68052 -0.26319,-0.79961 3.57454,-3.32199 8.52826,-5.60532 12.08083,-5.56842 14.19535,-9.90853 11.82229,-24.26555 -0.96014,-5.808767 -2.64834,-5.969887 -9.94563,-0.94923 -3.03526,2.08831 -6.06897,3.79693 -6.74156,3.79693 -1.95733,0 -9.08031,-8.735987 -9.06552,-11.118427 0.007,-1.19396 1.90236,-4.00557 4.21098,-6.24803 2.30864,-2.24245 5.29265,-6.12901 6.63117,-8.6368 l 2.43364,-4.55961 -3.36824,-2.75401 c -1.85253,-1.514689 -5.70538,-4.644243 -8.56188,-6.954561 -4.3378,-3.508589 -10.2184,-12.023642 -10.2184,-14.796517 0,-2.016506 40.4466,3.724781 57.65624,8.184143 87.85654,22.765395 158.22972,88.249782 186.85925,173.878242 6.39041,19.11315 10.62394,38.91486 12.5809,58.84535 1.30663,13.30715 1.26706,15.77877 -0.26812,16.75041 -2.91879,1.8473 -529.842208,1.52789 -530.985435,-0.32188 z"
             style="fill:#ffffff;fill-opacity:1;fill-rule:nonzero;stroke:none"
             id="path3919" />
        </g>
      </g>
    </g>
    <text
       xml:space="preserve"
       style="font-size:295.0559082px;font-style:normal;font-variant:normal;font-weight:bold;font-stretch:normal;text-align:start;line-height:125%;letter-spacing:0px;word-spacing:0px;writing-mode:lr;text-anchor:start;fill:#ffffff;fill-opacity:1;stroke:none;font-family:Sans;-inkscape-font-specification:Sans Bold"
       x="126.49456"
       y="735.2193"
       id="text3049"
       sodipodi:linespacing="125%"><tspan
         sodipodi:role="line"
         id="tspan3051"
         x="126.49456"
         y="735.2193">1</tspan></text>
  </g>
</svg>
